<svg width="32" height="26" viewBox="0 0 32 26" fill="none" xmlns="http://www.w3.org/2000/svg">
<path d="M31.3287 3.31323C30.328 3.74387 29.276 4.04374 28.1987 4.20544C28.7024 4.11909 29.4435 3.21249 29.7385 2.84554C30.1867 2.29202 30.5282 1.66013 30.7458 0.981972C30.7458 0.931606 30.7962 0.859653 30.7458 0.823677C30.7205 0.809822 30.692 0.802562 30.6631 0.802562C30.6342 0.802562 30.6057 0.809822 30.5804 0.823677C29.4105 1.45716 28.1656 1.94065 26.8748 2.26272C26.8298 2.27647 26.7819 2.2777 26.7363 2.26629C26.6907 2.25488 26.649 2.23126 26.6158 2.19797C26.5153 2.07833 26.4072 1.96537 26.292 1.85979C25.7655 1.38811 25.1682 1.00205 24.522 0.715749C23.6496 0.357841 22.7073 0.20284 21.7662 0.262449C20.8531 0.320117 19.9616 0.565036 19.1471 0.981972C18.3451 1.42155 17.6403 2.01872 17.0749 2.73761C16.4802 3.47753 16.0509 4.33623 15.8157 5.25594C15.6219 6.13077 15.5999 7.03495 15.751 7.91818C15.751 8.06927 15.751 8.09086 15.6215 8.06927C10.4913 7.31378 6.28206 5.49338 2.84274 1.58637C2.69164 1.41369 2.61249 1.41369 2.49017 1.58637C0.993566 3.86006 1.72028 7.45768 3.59104 9.2349C3.84288 9.47235 4.10191 9.70259 4.37532 9.91845C3.51759 9.85756 2.68081 9.62512 1.91456 9.2349C1.77065 9.14136 1.6915 9.19173 1.68431 9.36442C1.66391 9.60382 1.66391 9.84453 1.68431 10.0839C1.83444 11.2313 2.2866 12.3182 2.99456 13.2335C3.70252 14.1487 4.64086 14.8596 5.71364 15.2933C5.97515 15.4053 6.24765 15.4897 6.5267 15.5451C5.73265 15.7014 4.91826 15.7258 4.1163 15.6171C3.94361 15.5811 3.87885 15.6746 3.94361 15.8401C5.00131 18.7182 7.29659 19.596 8.98027 20.0853C9.21052 20.1213 9.44077 20.1213 9.69979 20.1789C9.69979 20.1789 9.69979 20.1788 9.65662 20.222C9.16015 21.1286 7.15268 21.7402 6.23169 22.0568C4.55065 22.6606 2.75835 22.8914 0.979176 22.7332C0.698562 22.69 0.633804 22.6972 0.561852 22.7332C0.4899 22.7691 0.561852 22.8483 0.641 22.9202C1.00076 23.1577 1.36052 23.3663 1.73467 23.5678C2.84853 24.1753 4.0261 24.6579 5.24595 25.0069C11.5634 26.7481 18.6722 25.4673 23.4139 20.7545C27.141 17.0561 28.4506 11.9547 28.4506 6.84609C28.4506 6.65181 28.688 6.53669 28.8247 6.43596C29.7677 5.70125 30.599 4.83357 31.2927 3.86006C31.4128 3.71495 31.4744 3.53018 31.4654 3.34201C31.4654 3.23408 31.4654 3.25567 31.3287 3.31323Z" fill="#C2B4A3"/>
</svg>
